# Blender v2.77 (sub 0) OBJ File: 'sidemotor.blend'
# www.blender.org
mtllib SideMotor.mtl
o SideMotor
v 1.180000 0.100000 0.000000
v 1.170696 -0.100000 -0.147893
v 1.170696 0.100000 -0.147893
v 1.180000 -0.100000 0.000000
v -1.180000 -0.100000 0.000000
v -1.170696 0.100000 -0.147893
v -1.170696 -0.100000 -0.147893
v -1.180000 0.100000 0.000000
v 0.074093 -0.100000 -1.177672
v -0.074093 0.100000 -1.177672
v 0.074093 0.100000 -1.177672
v -0.074093 -0.100000 -1.177672
v 0.860182 -0.100000 -0.807766
v 0.752160 0.100000 -0.909206
v 0.860182 0.100000 -0.807766
v 0.752160 -0.100000 -0.909206
v -0.752160 -0.100000 -0.909206
v -0.860182 0.100000 -0.807766
v -0.752160 0.100000 -0.909206
v -0.860182 -0.100000 -0.807766
v -0.364640 -0.100000 -1.122246
v -0.502420 0.100000 -1.067696
v -0.364640 0.100000 -1.122246
v -0.502420 -0.100000 -1.067696
v 1.140000 -0.100000 0.000000
v 1.170696 -0.100000 0.147893
v 1.131010 -0.100000 0.142880
v 1.142928 -0.100000 0.293454
v 1.131010 -0.100000 -0.142880
v 1.104184 -0.100000 0.283506
v 1.097136 -0.100000 0.434386
v 1.059946 -0.100000 0.419662
v 1.034042 -0.100000 0.568470
v 0.998990 -0.100000 0.549200
v 0.954640 -0.100000 0.693586
v 0.922280 -0.100000 0.670076
v 0.860182 -0.100000 0.807766
v 0.831024 -0.100000 0.780384
v 0.752160 -0.100000 0.909206
v 0.726664 -0.100000 0.878386
v 0.632276 -0.100000 0.996306
v 0.610842 -0.100000 0.962534
v 0.502420 -0.100000 1.067696
v 0.485388 -0.100000 1.031502
v 0.364640 -0.100000 1.122246
v 0.352280 -0.100000 1.084204
v 0.221110 -0.100000 1.159098
v 0.213614 -0.100000 1.119808
v 0.074093 -0.100000 1.177672
v 0.071581 -0.100000 1.137750
v -0.071581 -0.100000 1.137750
v -0.074093 -0.100000 1.177672
v -0.213614 -0.100000 1.119808
v -0.221110 -0.100000 1.159098
v -0.352280 -0.100000 1.084204
v -0.364640 -0.100000 1.122246
v -0.485388 -0.100000 1.031502
v -0.502420 -0.100000 1.067696
v -0.610842 -0.100000 0.962534
v -0.632276 -0.100000 0.996306
v -0.726664 -0.100000 0.878386
v -0.752160 -0.100000 0.909206
v -0.831024 -0.100000 0.780384
v -0.860182 -0.100000 0.807766
v -0.922280 -0.100000 0.670076
v -0.954640 -0.100000 0.693586
v -0.998990 -0.100000 0.549200
v -1.034042 -0.100000 0.568470
v -1.059946 -0.100000 0.419662
v -1.097136 -0.100000 0.434386
v -1.104184 -0.100000 0.283506
v -1.142928 -0.100000 0.293454
v -1.170696 -0.100000 0.147893
v -1.131010 -0.100000 0.142880
v 1.142928 -0.100000 -0.293454
v 1.104184 -0.100000 -0.283506
v 1.097136 -0.100000 -0.434386
v 1.059946 -0.100000 -0.419662
v 1.034042 -0.100000 -0.568470
v 0.998990 -0.100000 -0.549200
v 0.954640 -0.100000 -0.693586
v 0.922280 -0.100000 -0.670076
v 0.831024 -0.100000 -0.780384
v 0.726664 -0.100000 -0.878386
v 0.632276 -0.100000 -0.996306
v 0.610842 -0.100000 -0.962534
v 0.502420 -0.100000 -1.067696
v 0.485388 -0.100000 -1.031502
v 0.364640 -0.100000 -1.122246
v 0.352280 -0.100000 -1.084204
v 0.221110 -0.100000 -1.159098
v 0.213614 -0.100000 -1.119808
v 0.071581 -0.100000 -1.137750
v -0.071581 -0.100000 -1.137750
v -0.213614 -0.100000 -1.119808
v -0.221110 -0.100000 -1.159098
v -0.352280 -0.100000 -1.084204
v -0.485388 -0.100000 -1.031502
v -0.610842 -0.100000 -0.962534
v -0.632276 -0.100000 -0.996306
v -0.726664 -0.100000 -0.878386
v -0.831024 -0.100000 -0.780384
v -0.922280 -0.100000 -0.670076
v -0.954640 -0.100000 -0.693586
v -0.998990 -0.100000 -0.549200
v -1.034042 -0.100000 -0.568470
v -1.059946 -0.100000 -0.419662
v -1.097136 -0.100000 -0.434386
v -1.104184 -0.100000 -0.283506
v -1.142928 -0.100000 -0.293454
v -1.131010 -0.100000 -0.142880
v -1.140000 -0.100000 0.000000
v 1.097136 0.100000 -0.434386
v 1.034042 0.100000 -0.568470
v 1.142928 0.100000 -0.293454
v 0.364640 0.100000 -1.122246
v 0.502420 0.100000 -1.067696
v 0.221110 0.100000 -1.159098
v 0.632276 0.100000 -0.996306
v -1.034042 0.100000 -0.568470
v -1.097136 0.100000 -0.434386
v -0.954640 0.100000 -0.693586
v -1.142928 0.100000 -0.293454
v -0.632276 0.100000 -0.996306
v -0.221110 0.100000 -1.159098
v 1.170696 0.100000 0.147893
v 0.221110 0.100000 1.159098
v 0.074093 0.100000 1.177672
v 0.954640 0.100000 -0.693586
v 1.097136 0.100000 0.434386
v 1.142928 0.100000 0.293454
v -1.097136 0.100000 0.434386
v -1.034042 0.100000 0.568470
v -1.142928 0.100000 0.293454
v 0.502420 0.100000 1.067696
v 0.364640 0.100000 1.122246
v 1.140000 0.100000 0.000000
v 1.131010 0.100000 -0.142880
v 1.131010 0.100000 0.142880
v 1.104184 0.100000 -0.283506
v 1.059946 0.100000 -0.419662
v 0.998990 0.100000 -0.549200
v 0.922280 0.100000 -0.670076
v 0.831024 0.100000 -0.780384
v 0.726664 0.100000 -0.878386
v 0.610842 0.100000 -0.962534
v 0.485388 0.100000 -1.031502
v 0.352280 0.100000 -1.084204
v 0.213614 0.100000 -1.119808
v 0.071581 0.100000 -1.137750
v -0.071581 0.100000 -1.137750
v -0.213614 0.100000 -1.119808
v -0.352280 0.100000 -1.084204
v -0.485388 0.100000 -1.031502
v -0.610842 0.100000 -0.962534
v -0.726664 0.100000 -0.878386
v -0.831024 0.100000 -0.780384
v -0.922280 0.100000 -0.670076
v -0.998990 0.100000 -0.549200
v -1.059946 0.100000 -0.419662
v -1.104184 0.100000 -0.283506
v -1.131010 0.100000 -0.142880
v 1.104184 0.100000 0.283506
v 1.059946 0.100000 0.419662
v 1.034042 0.100000 0.568470
v 0.998990 0.100000 0.549200
v 0.954640 0.100000 0.693586
v 0.922280 0.100000 0.670076
v 0.860182 0.100000 0.807766
v 0.831024 0.100000 0.780384
v 0.752160 0.100000 0.909206
v 0.726664 0.100000 0.878386
v 0.632276 0.100000 0.996306
v 0.610842 0.100000 0.962534
v 0.485388 0.100000 1.031502
v 0.352280 0.100000 1.084204
v 0.213614 0.100000 1.119808
v 0.071581 0.100000 1.137750
v -0.071581 0.100000 1.137750
v -0.074093 0.100000 1.177672
v -0.213614 0.100000 1.119808
v -0.221110 0.100000 1.159098
v -0.352280 0.100000 1.084204
v -0.364640 0.100000 1.122246
v -0.485388 0.100000 1.031502
v -0.502420 0.100000 1.067696
v -0.610842 0.100000 0.962534
v -0.632276 0.100000 0.996306
v -0.726664 0.100000 0.878386
v -0.752160 0.100000 0.909206
v -0.831024 0.100000 0.780384
v -0.860182 0.100000 0.807766
v -0.922280 0.100000 0.670076
v -0.954640 0.100000 0.693586
v -0.998990 0.100000 0.549200
v -1.059946 0.100000 0.419662
v -1.104184 0.100000 0.283506
v -1.131010 0.100000 0.142880
v -1.170696 0.100000 0.147893
v -1.140000 0.100000 0.000000
vn 0.9980 0.0000 -0.0628
vn -0.9980 0.0000 -0.0628
vn 0.0000 0.0000 -1.0000
vn 0.6845 0.0000 -0.7290
vn -0.6845 0.0000 -0.7290
vn -0.3681 0.0000 -0.9298
vn 0.0000 -1.0000 -0.0000
vn 0.9048 0.0000 -0.4258
vn 0.9823 0.0000 -0.1874
vn 0.3681 0.0000 -0.9298
vn 0.2487 0.0000 -0.9686
vn 0.5878 0.0000 -0.8090
vn -0.9048 0.0000 -0.4258
vn -0.8443 0.0000 -0.5358
vn -0.9511 0.0000 -0.3090
vn -0.5878 0.0000 -0.8090
vn -0.1253 0.0000 -0.9921
vn 0.9980 0.0000 0.0628
vn 0.1253 0.0000 0.9921
vn 0.9511 0.0000 -0.3090
vn 0.7705 0.0000 -0.6374
vn 0.8443 0.0000 -0.5358
vn 0.1253 0.0000 -0.9921
vn -0.7705 0.0000 -0.6374
vn -0.4818 0.0000 -0.8763
vn -0.2487 0.0000 -0.9686
vn 0.9511 0.0000 0.3090
vn 0.9823 0.0000 0.1874
vn -0.9048 0.0000 0.4258
vn -0.9511 0.0000 0.3090
vn 0.3681 0.0000 0.9298
vn 0.2487 0.0000 0.9686
vn 0.4818 0.0000 -0.8763
vn 0.0000 1.0000 0.0000
vn -0.9823 0.0000 -0.1874
vn 0.8443 0.0000 0.5358
vn 0.6845 0.0000 0.7290
vn 0.9048 0.0000 0.4258
vn -0.9980 0.0000 0.0628
vn 0.4818 0.0000 0.8763
vn 0.0000 0.0000 1.0000
vn -0.1253 0.0000 0.9921
vn -0.2487 0.0000 0.9686
vn -0.6845 0.0000 0.7290
vn -0.7705 0.0000 0.6374
vn -0.8443 0.0000 0.5358
vn -0.9823 0.0000 0.1874
vn 0.5878 0.0000 0.8090
vn 0.7705 0.0000 0.6374
vn -0.5878 0.0000 0.8090
vn -0.3681 0.0000 0.9298
vn -0.4818 0.0000 0.8763
vn -0.6846 0.0000 0.7290
vn 0.6846 0.0000 0.7290
vn -0.4817 0.0000 0.8763
vn 0.4817 0.0000 0.8763
vn -0.4817 0.0000 -0.8763
vn -0.6846 0.0000 -0.7290
vn 0.6846 0.0000 -0.7290
vn 0.4817 0.0000 -0.8763
usemtl None
s off
f 1//1 2//1 3//1
f 2//1 1//1 4//1
f 5//2 6//2 7//2
f 6//2 5//2 8//2
f 9//3 10//3 11//3
f 10//3 9//3 12//3
f 13//4 14//4 15//4
f 14//4 13//4 16//4
f 17//5 18//5 19//5
f 18//5 17//5 20//5
f 21//6 22//6 23//6
f 22//6 21//6 24//6
f 25//7 4//7 26//7
f 27//7 26//7 28//7
f 4//7 25//7 2//7
f 29//7 2//7 25//7
f 26//7 27//7 25//7
f 28//7 30//7 27//7
f 31//7 30//7 28//7
f 31//7 32//7 30//7
f 33//7 32//7 31//7
f 33//7 34//7 32//7
f 35//7 34//7 33//7
f 35//7 36//7 34//7
f 37//7 36//7 35//7
f 37//7 38//7 36//7
f 39//7 38//7 37//7
f 39//7 40//7 38//7
f 41//7 40//7 39//7
f 41//7 42//7 40//7
f 43//7 42//7 41//7
f 43//7 44//7 42//7
f 45//7 44//7 43//7
f 45//7 46//7 44//7
f 47//7 46//7 45//7
f 47//7 48//7 46//7
f 49//7 48//7 47//7
f 49//7 50//7 48//7
f 49//7 51//7 50//7
f 52//7 51//7 49//7
f 52//7 53//7 51//7
f 54//7 53//7 52//7
f 54//7 55//7 53//7
f 56//7 55//7 54//7
f 56//7 57//7 55//7
f 58//7 57//7 56//7
f 58//7 59//7 57//7
f 60//7 59//7 58//7
f 60//7 61//7 59//7
f 62//7 61//7 60//7
f 62//7 63//7 61//7
f 64//7 63//7 62//7
f 64//7 65//7 63//7
f 66//7 65//7 64//7
f 66//7 67//7 65//7
f 68//7 67//7 66//7
f 68//7 69//7 67//7
f 70//7 69//7 68//7
f 70//7 71//7 69//7
f 72//7 71//7 70//7
f 73//7 74//7 72//7
f 71//7 72//7 74//7
f 2//7 29//7 75//7
f 76//7 75//7 29//7
f 76//7 77//7 75//7
f 78//7 77//7 76//7
f 78//7 79//7 77//7
f 80//7 79//7 78//7
f 80//7 81//7 79//7
f 82//7 81//7 80//7
f 82//7 13//7 81//7
f 83//7 13//7 82//7
f 83//7 16//7 13//7
f 84//7 16//7 83//7
f 84//7 85//7 16//7
f 86//7 85//7 84//7
f 86//7 87//7 85//7
f 88//7 87//7 86//7
f 88//7 89//7 87//7
f 90//7 89//7 88//7
f 90//7 91//7 89//7
f 92//7 91//7 90//7
f 92//7 9//7 91//7
f 93//7 9//7 92//7
f 94//7 9//7 93//7
f 94//7 12//7 9//7
f 95//7 12//7 94//7
f 95//7 96//7 12//7
f 97//7 96//7 95//7
f 97//7 21//7 96//7
f 98//7 21//7 97//7
f 98//7 24//7 21//7
f 99//7 24//7 98//7
f 99//7 100//7 24//7
f 101//7 100//7 99//7
f 101//7 17//7 100//7
f 102//7 17//7 101//7
f 102//7 20//7 17//7
f 103//7 20//7 102//7
f 103//7 104//7 20//7
f 105//7 104//7 103//7
f 105//7 106//7 104//7
f 107//7 106//7 105//7
f 107//7 108//7 106//7
f 109//7 108//7 107//7
f 110//7 109//7 111//7
f 109//7 110//7 108//7
f 7//7 111//7 112//7
f 74//7 73//7 112//7
f 5//7 112//7 73//7
f 111//7 7//7 110//7
f 112//7 5//7 7//7
f 113//8 79//8 114//8
f 79//8 113//8 77//8
f 3//9 75//9 115//9
f 75//9 3//9 2//9
f 87//10 116//10 117//10
f 116//10 87//10 89//10
f 89//11 118//11 116//11
f 118//11 89//11 91//11
f 16//12 119//12 14//12
f 119//12 16//12 85//12
f 108//13 120//13 106//13
f 120//13 108//13 121//13
f 106//14 122//14 104//14
f 122//14 106//14 120//14
f 110//15 121//15 108//15
f 121//15 110//15 123//15
f 100//16 19//16 124//16
f 19//16 100//16 17//16
f 12//17 125//17 10//17
f 125//17 12//17 96//17
f 126//18 4//18 1//18
f 4//18 126//18 26//18
f 49//19 127//19 128//19
f 127//19 49//19 47//19
f 115//20 77//20 113//20
f 77//20 115//20 75//20
f 129//21 13//21 15//21
f 13//21 129//21 81//21
f 114//22 81//22 129//22
f 81//22 114//22 79//22
f 91//23 11//23 118//23
f 11//23 91//23 9//23
f 104//24 18//24 20//24
f 18//24 104//24 122//24
f 24//25 124//25 22//25
f 124//25 24//25 100//25
f 96//26 23//26 125//26
f 23//26 96//26 21//26
f 130//27 28//27 131//27
f 28//27 130//27 31//27
f 131//28 26//28 126//28
f 26//28 131//28 28//28
f 68//29 132//29 70//29
f 132//29 68//29 133//29
f 70//30 134//30 72//30
f 134//30 70//30 132//30
f 45//31 135//31 136//31
f 135//31 45//31 43//31
f 47//32 136//32 127//32
f 136//32 47//32 45//32
f 85//33 117//33 119//33
f 117//33 85//33 87//33
f 137//34 1//34 3//34
f 138//34 3//34 115//34
f 1//34 137//34 126//34
f 139//34 126//34 137//34
f 3//34 138//34 137//34
f 115//34 140//34 138//34
f 113//34 140//34 115//34
f 113//34 141//34 140//34
f 114//34 141//34 113//34
f 114//34 142//34 141//34
f 129//34 142//34 114//34
f 129//34 143//34 142//34
f 15//34 143//34 129//34
f 15//34 144//34 143//34
f 14//34 144//34 15//34
f 14//34 145//34 144//34
f 119//34 145//34 14//34
f 119//34 146//34 145//34
f 117//34 146//34 119//34
f 117//34 147//34 146//34
f 116//34 147//34 117//34
f 116//34 148//34 147//34
f 118//34 148//34 116//34
f 118//34 149//34 148//34
f 11//34 149//34 118//34
f 11//34 150//34 149//34
f 11//34 151//34 150//34
f 10//34 151//34 11//34
f 10//34 152//34 151//34
f 125//34 152//34 10//34
f 125//34 153//34 152//34
f 23//34 153//34 125//34
f 23//34 154//34 153//34
f 22//34 154//34 23//34
f 22//34 155//34 154//34
f 124//34 155//34 22//34
f 124//34 156//34 155//34
f 19//34 156//34 124//34
f 19//34 157//34 156//34
f 18//34 157//34 19//34
f 18//34 158//34 157//34
f 122//34 158//34 18//34
f 122//34 159//34 158//34
f 120//34 159//34 122//34
f 120//34 160//34 159//34
f 121//34 160//34 120//34
f 121//34 161//34 160//34
f 123//34 161//34 121//34
f 6//34 162//34 123//34
f 161//34 123//34 162//34
f 126//34 139//34 131//34
f 163//34 131//34 139//34
f 163//34 130//34 131//34
f 164//34 130//34 163//34
f 164//34 165//34 130//34
f 166//34 165//34 164//34
f 166//34 167//34 165//34
f 168//34 167//34 166//34
f 168//34 169//34 167//34
f 170//34 169//34 168//34
f 170//34 171//34 169//34
f 172//34 171//34 170//34
f 172//34 173//34 171//34
f 174//34 173//34 172//34
f 174//34 135//34 173//34
f 175//34 135//34 174//34
f 175//34 136//34 135//34
f 176//34 136//34 175//34
f 176//34 127//34 136//34
f 177//34 127//34 176//34
f 177//34 128//34 127//34
f 178//34 128//34 177//34
f 179//34 128//34 178//34
f 179//34 180//34 128//34
f 181//34 180//34 179//34
f 181//34 182//34 180//34
f 183//34 182//34 181//34
f 183//34 184//34 182//34
f 185//34 184//34 183//34
f 185//34 186//34 184//34
f 187//34 186//34 185//34
f 187//34 188//34 186//34
f 189//34 188//34 187//34
f 189//34 190//34 188//34
f 191//34 190//34 189//34
f 191//34 192//34 190//34
f 193//34 192//34 191//34
f 193//34 194//34 192//34
f 195//34 194//34 193//34
f 195//34 133//34 194//34
f 196//34 133//34 195//34
f 196//34 132//34 133//34
f 197//34 132//34 196//34
f 134//34 197//34 198//34
f 197//34 134//34 132//34
f 199//34 198//34 200//34
f 162//34 6//34 200//34
f 8//34 200//34 6//34
f 198//34 199//34 134//34
f 200//34 8//34 199//34
f 7//35 123//35 110//35
f 123//35 7//35 6//35
f 167//36 33//36 165//36
f 33//36 167//36 35//36
f 39//37 169//37 171//37
f 169//37 39//37 37//37
f 165//38 31//38 130//38
f 31//38 165//38 33//38
f 73//39 8//39 5//39
f 8//39 73//39 199//39
f 43//40 173//40 135//40
f 173//40 43//40 41//40
f 52//41 128//41 180//41
f 128//41 52//41 49//41
f 54//42 180//42 182//42
f 180//42 54//42 52//42
f 56//43 182//43 184//43
f 182//43 56//43 54//43
f 64//44 190//44 192//44
f 190//44 64//44 62//44
f 64//45 194//45 66//45
f 194//45 64//45 192//45
f 66//46 133//46 68//46
f 133//46 66//46 194//46
f 72//47 199//47 73//47
f 199//47 72//47 134//47
f 41//48 171//48 173//48
f 171//48 41//48 39//48
f 169//49 35//49 167//49
f 35//49 169//49 37//49
f 62//50 188//50 190//50
f 188//50 62//50 60//50
f 58//51 184//51 186//51
f 184//51 58//51 56//51
f 60//52 186//52 188//52
f 186//52 60//52 58//52
f 25//39 138//39 29//39
f 138//39 25//39 137//39
f 200//18 111//18 162//18
f 111//18 200//18 112//18
f 94//41 150//41 151//41
f 150//41 94//41 93//41
f 84//53 144//53 145//53
f 144//53 84//53 83//53
f 102//54 156//54 157//54
f 156//54 102//54 101//54
f 98//31 153//31 154//31
f 153//31 98//31 97//31
f 78//29 142//29 80//29
f 142//29 78//29 141//29
f 29//47 140//47 76//47
f 140//47 29//47 138//47
f 90//51 147//51 148//51
f 147//51 90//51 88//51
f 86//50 145//50 146//50
f 145//50 86//50 84//50
f 160//38 105//38 159//38
f 105//38 160//38 107//38
f 159//36 103//36 158//36
f 103//36 159//36 105//36
f 161//27 107//27 160//27
f 107//27 161//27 109//27
f 101//48 155//48 156//48
f 155//48 101//48 99//48
f 95//19 151//19 152//19
f 151//19 95//19 94//19
f 27//2 137//2 25//2
f 137//2 27//2 139//2
f 53//11 183//11 181//11
f 183//11 53//11 55//11
f 48//17 178//17 177//17
f 178//17 48//17 50//17
f 76//30 141//30 78//30
f 141//30 76//30 140//30
f 82//45 144//45 83//45
f 144//45 82//45 143//45
f 80//46 143//46 82//46
f 143//46 80//46 142//46
f 92//43 148//43 149//43
f 148//43 92//43 90//43
f 93//42 149//42 150//42
f 149//42 93//42 92//42
f 88//55 146//55 147//55
f 146//55 88//55 86//55
f 162//28 109//28 161//28
f 109//28 162//28 111//28
f 99//56 154//56 155//56
f 154//56 99//56 98//56
f 97//32 152//32 153//32
f 152//32 97//32 95//32
f 32//15 163//15 30//15
f 163//15 32//15 164//15
f 30//35 139//35 27//35
f 139//35 30//35 163//35
f 196//20 71//20 197//20
f 71//20 196//20 69//20
f 44//6 176//6 175//6
f 176//6 44//6 46//6
f 46//26 177//26 176//26
f 177//26 46//26 48//26
f 158//49 102//49 157//49
f 102//49 158//49 103//49
f 42//57 175//57 174//57
f 175//57 42//57 44//57
f 38//58 172//58 170//58
f 172//58 38//58 40//58
f 34//13 164//13 32//13
f 164//13 34//13 166//13
f 38//24 168//24 36//24
f 168//24 38//24 170//24
f 50//3 179//3 178//3
f 179//3 50//3 51//3
f 55//10 185//10 183//10
f 185//10 55//10 57//10
f 191//21 65//21 193//21
f 65//21 191//21 63//21
f 198//1 112//1 200//1
f 112//1 198//1 74//1
f 40//16 174//16 172//16
f 174//16 40//16 42//16
f 36//14 166//14 34//14
f 166//14 36//14 168//14
f 51//23 181//23 179//23
f 181//23 51//23 53//23
f 59//12 189//12 187//12
f 189//12 59//12 61//12
f 61//59 191//59 189//59
f 191//59 61//59 63//59
f 197//9 74//9 198//9
f 74//9 197//9 71//9
f 57//60 187//60 185//60
f 187//60 57//60 59//60
f 193//22 67//22 195//22
f 67//22 193//22 65//22
f 195//8 69//8 196//8
f 69//8 195//8 67//8
